<svg width="24" height="25" viewBox="0 0 24 25" fill="none" xmlns="http://www.w3.org/2000/svg">
<mask id="mask0_1_20" style="mask-type:alpha" maskUnits="userSpaceOnUse" x="0" y="0" width="24" height="25">
<rect y="0.858398" width="24" height="24" fill="#D9D9D9"/>
</mask>
<g mask="url(#mask0_1_20)">
<path d="M15 20.8584C12.7667 20.8584 10.875 20.0834 9.325 18.5334C7.775 16.9834 7 15.0917 7 12.8584C7 10.6417 7.775 8.75423 9.325 7.1959C10.875 5.63757 12.7667 4.8584 15 4.8584C17.2167 4.8584 19.1042 5.63757 20.6625 7.1959C22.2208 8.75423 23 10.6417 23 12.8584C23 15.0917 22.2208 16.9834 20.6625 18.5334C19.1042 20.0834 17.2167 20.8584 15 20.8584ZM15 18.8584C16.6667 18.8584 18.0833 18.2751 19.25 17.1084C20.4167 15.9417 21 14.5251 21 12.8584C21 11.1917 20.4167 9.77507 19.25 8.6084C18.0833 7.44173 16.6667 6.8584 15 6.8584C13.3333 6.8584 11.9167 7.44173 10.75 8.6084C9.58333 9.77507 9 11.1917 9 12.8584C9 14.5251 9.58333 15.9417 10.75 17.1084C11.9167 18.2751 13.3333 18.8584 15 18.8584ZM17.275 16.5834L18.7 15.1584L16 12.4584V8.8584H14V13.2834L17.275 16.5834ZM2 9.8584V7.8584H6V9.8584H2ZM1 13.8584V11.8584H6V13.8584H1ZM2 17.8584V15.8584H6V17.8584H2Z" fill="#757575"/>
</g>
</svg>
