<svg width="21" height="21" viewBox="0 0 21 21" fill="none" xmlns="http://www.w3.org/2000/svg">
<path d="M8.81387 14.8837L15.8639 7.83369L14.4639 6.43369L8.81387 12.0837L5.96387 9.23369L4.56387 10.6337L8.81387 14.8837ZM10.2139 20.2837C8.83053 20.2837 7.53053 20.0212 6.31387 19.4962C5.0972 18.9712 4.03887 18.2587 3.13887 17.3587C2.23887 16.4587 1.52637 15.4004 1.00137 14.1837C0.476367 12.967 0.213867 11.667 0.213867 10.2837C0.213867 8.90036 0.476367 7.60036 1.00137 6.38369C1.52637 5.16702 2.23887 4.10869 3.13887 3.20869C4.03887 2.30869 5.0972 1.59619 6.31387 1.07119C7.53053 0.546191 8.83053 0.283691 10.2139 0.283691C11.5972 0.283691 12.8972 0.546191 14.1139 1.07119C15.3305 1.59619 16.3889 2.30869 17.2889 3.20869C18.1889 4.10869 18.9014 5.16702 19.4264 6.38369C19.9514 7.60036 20.2139 8.90036 20.2139 10.2837C20.2139 11.667 19.9514 12.967 19.4264 14.1837C18.9014 15.4004 18.1889 16.4587 17.2889 17.3587C16.3889 18.2587 15.3305 18.9712 14.1139 19.4962C12.8972 20.0212 11.5972 20.2837 10.2139 20.2837ZM10.2139 18.2837C12.4472 18.2837 14.3389 17.5087 15.8889 15.9587C17.4389 14.4087 18.2139 12.517 18.2139 10.2837C18.2139 8.05036 17.4389 6.15869 15.8889 4.60869C14.3389 3.05869 12.4472 2.28369 10.2139 2.28369C7.98053 2.28369 6.08887 3.05869 4.53887 4.60869C2.98887 6.15869 2.21387 8.05036 2.21387 10.2837C2.21387 12.517 2.98887 14.4087 4.53887 15.9587C6.08887 17.5087 7.98053 18.2837 10.2139 18.2837Z" fill="#07DF44"/>
</svg>
