<svg width="35" height="35" viewBox="0 0 35 35" fill="none" xmlns="http://www.w3.org/2000/svg">
<rect width="35" height="35" rx="5" fill="#2D65FF" fill-opacity="0.2"/>
<path d="M13.5 14.5V12.5H22.5V14.5H13.5ZM13.5 17.5V15.5H22.5V17.5H13.5ZM16.5 27.5H10.5C9.66667 27.5 8.95833 27.2083 8.375 26.625C7.79167 26.0417 7.5 25.3333 7.5 24.5V21.5H10.5V7.5H25.5V16.525C25.1667 16.4917 24.8292 16.5042 24.4875 16.5625C24.1458 16.6208 23.8167 16.725 23.5 16.875V9.5H12.5V21.5H18.5L16.5 23.5H9.5V24.5C9.5 24.7833 9.59583 25.0208 9.7875 25.2125C9.97917 25.4042 10.2167 25.5 10.5 25.5H16.5V27.5ZM18.5 27.5V24.425L24.025 18.925C24.175 18.775 24.3417 18.6667 24.525 18.6C24.7083 18.5333 24.8917 18.5 25.075 18.5C25.275 18.5 25.4667 18.5375 25.65 18.6125C25.8333 18.6875 26 18.8 26.15 18.95L27.075 19.875C27.2083 20.025 27.3125 20.1917 27.3875 20.375C27.4625 20.5583 27.5 20.7417 27.5 20.925C27.5 21.1083 27.4667 21.2958 27.4 21.4875C27.3333 21.6792 27.225 21.85 27.075 22L21.575 27.5H18.5ZM20 26H20.95L23.975 22.95L23.525 22.475L23.05 22.025L20 25.05V26ZM23.525 22.475L23.05 22.025L23.975 22.95L23.525 22.475Z" fill="#2D65FF"/>
</svg>
